<svg xmlns="http://www.w3.org/2000/svg" viewBox="0 0 1200 675" width="1200" height="675">
  <defs>
    <linearGradient id="gDrop" x1="0%" y1="0%" x2="100%" y2="100%">
      <stop offset="0%" stop-color="#7BB8D9"/>
<stop offset="100%" stop-color="#0B4E8F"/>
    </linearGradient>
  </defs>
  <rect width="1200" height="675" fill="url(#gDrop)"/>
  
<path d="M0,725 L0,635 L220,535 L460,615 L680,515 L900,605 L1120,545 L1200,625 L1200,725 Z" fill="#0c2038" opacity="0.55"/>
<g stroke="#FFFFFF" stroke-width="8" stroke-linecap="round" opacity="0.85" fill="none">
      <path d="M 205 185 h 210 a 27 27 0 1 0 -27 -27"/>
      <path d="M 205 245 h 270 a 30 30 0 1 1 -30 30"/>
      <path d="M 205 305 h 165 a 21 21 0 1 0 -21 -21"/>
    </g>

      <rect x="864" y="136" width="31" height="264" rx="16" fill="none" stroke="#FFFFFF" stroke-width="7" opacity="0.9"/>
      <circle cx="880" cy="400" r="41" fill="#4FA8E0"/>
      <rect x="870" y="316" width="19" height="84" rx="10" fill="#4FA8E0"/>
      <line x1="964" y1="255" x2="964" y2="371" stroke="#7DD3FC" stroke-width="12" stroke-linecap="round"/><polygon points="938,366 990,366 964,407" fill="#7DD3FC"/>
    
<path d="M0,725 L0,605 L180,465 L340,565 L520,435 L720,575 L900,455 L1080,555 L1200,495 L1200,725 Z" fill="#0F172A" opacity="1.0"/>

</svg>